# xmcd CD database file
#
# Track frame offsets:
#	150
#	91073
#	135731
#	169627
#	210717
#	220366
#
# Disc length: 3624 seconds
#
# Revision: 0
# Processed by: cddbd v1.5.2PL0 Copyright (c) Steve Scherf et al.
# Submitted via: CDex 1.75
#
DISCID=500e2606
DTITLE=Various Artist - Best of Nature
DYEAR=2017
DGENRE=New Age
TTITLE0=Sea
TTITLE1=Rainforest
TTITLE2=Thunderstorm
TTITLE3=Stream
TTITLE4=Ice Cave
TTITLE5=Meadow
EXTD=YEAR: 2017
EXTT0=
EXTT1=
EXTT2=
EXTT3=
EXTT4=
EXTT5=
PLAYORDER=
